<svg xmlns="http://www.w3.org/2000/svg" viewBox="0 0 128 128" fill="none">
  <path d="M64 18C39.7 18 20 37.9 20 62.5C20 82.2 32.8 98.9 50.4 104.8C52.6 105.2 53.4 103.9 53.4 102.8V95.7C41.2 98.4 38.7 90.4 38.7 90.4C36.8 85.2 34 83.8 34 83.8C30.1 81 34.3 81.1 34.3 81.1C38.6 81.4 40.9 85.8 40.9 85.8C44.7 92.5 50.9 90.6 53.3 89.5C53.7 86.7 54.8 84.8 56 83.7C46.6 82.6 36.7 78.8 36.7 61.9C36.7 57.1 38.4 53.2 41.2 50.2C40.7 49.1 39.3 44.7 41.7 38.7C41.7 38.7 45.3 37.5 53.3 43.1C56.7 42.1 60.4 41.6 64 41.6C67.6 41.6 71.3 42.1 74.7 43.1C82.7 37.5 86.3 38.7 86.3 38.7C88.7 44.7 87.3 49.1 86.8 50.2C89.6 53.2 91.3 57.1 91.3 61.9C91.3 78.8 81.4 82.6 72 83.7C73.5 85 74.8 87.5 74.8 91.3V102.8C74.8 103.9 75.6 105.2 77.8 104.8C95.4 98.9 108.2 82.2 108.2 62.5C108.2 37.9 88.5 18 64 18Z" fill="#F4F7FB"/>
</svg>
