<svg xmlns="http://www.w3.org/2000/svg" width="512" height="512" viewBox="0 0 512 512" fill="none">
  <rect width="512" height="512" rx="120" fill="#07131D"/>
  <path d="M160 208C181.333 165.333 213.333 144 256 144C320 144 328 192 360 208C381.333 218.667 402.667 213.333 424 192C402.667 234.667 370.667 256 328 256C264 256 256 208 224 192C202.667 181.333 181.333 186.667 160 208Z" fill="#38BDF8"/>
  <path d="M88 320C109.333 277.333 141.333 256 184 256C248 256 256 304 288 320C309.333 330.667 330.667 325.333 352 304C330.667 346.667 298.667 368 256 368C192 368 184 320 152 304C130.667 293.333 109.333 298.667 88 320Z" fill="#38BDF8"/>
</svg>
